<svg id="Layer_1" data-name="Layer 1" xmlns="http://www.w3.org/2000/svg" viewBox="0 0 300 300"><defs><style>.cls-1{fill:url(#linear-gradient)}</style><linearGradient id="linear-gradient" x1="-804.75" y1="690.63" x2="-803.75" y2="690.63" gradientTransform="matrix(193.72 84.31 90.33 -180.81 93535.02 192808.55)" gradientUnits="userSpaceOnUse"><stop offset="0" stop-color="#ff5a20"/><stop offset="1" stop-color="#ffacc7"/></linearGradient></defs><title>Artboard 1</title><path class="cls-1" d="M249.75 85.16a10.72 10.72 0 0 0 7.12-10 10.69 10.69 0 0 0-21.37 0 10.06 10.06 0 0 0 7.12 10v37.76c-.71 0-1.43-.71-2.14-.71-10-41.33-46.31-72-90.49-72s-80.51 30.64-90.49 72a21.22 21.22 0 0 0 0 41.32A98 98 0 0 0 78.75 202v19.24S93 249.75 150 249.75s71.25-28.5 71.25-28.5V202c9.26-10.69 15.68-24.22 19.24-38.47a21.39 21.39 0 0 0 16.39-20.66 20.42 20.42 0 0 0-7.12-15.68zm-20.66 78.37a77.2 77.2 0 0 1-20.66 36.34c-15 15.68-35.62 0-58.43 0s-44.17 15.68-58.42 0a80.78 80.78 0 0 1-20.66-36.34 68.88 68.88 0 0 1-2.85-20.66 68.88 68.88 0 0 1 2.85-20.66c9.26-35.62 41.33-47 79.09-47 38.47 0 70.54 12.11 79.09 47 1.43 6.41 2.85 13.54 2.85 20.66a68.88 68.88 0 0 1-2.86 20.67zM150 92.29c-28.5 0-52 9.26-59.14 35.62a53.44 53.44 0 0 0 0 29.93l.71 1.43A110.34 110.34 0 0 1 160.69 135c-29.93 12.11-49.16 29.21-59.85 42.75a62.3 62.3 0 0 0 5.7 7.12 16.69 16.69 0 0 0 12.11 5c9.26 0 19.95-5 31.35-5s22.09 5 31.35 5a16.69 16.69 0 0 0 12.11-5c7.12-7.84 12.82-17.1 15-27.07a53.44 53.44 0 0 0 0-29.93C202 100.84 178.5 92.29 150 92.29z" id="fbd0d2a8-f2b4-bd77-d7cd-b59f3f1ec096"/></svg>