<svg width="250" id="Layer_1" data-name="Layer 1" xmlns="http://www.w3.org/2000/svg" viewBox="0 0 300 65"><defs><style>.cls-1{fill:#ffe9e6}.cls-2{fill:url(#linear-gradient)}</style><linearGradient id="linear-gradient" x1="-787.15" y1="573.44" x2="-786.15" y2="573.44" gradientTransform="matrix(37.73 16.42 17.59 -35.21 19644.27 33136)" gradientUnits="userSpaceOnUse"><stop offset="0" stop-color="#ff5a20"/><stop offset="1" stop-color="#ffacc7"/></linearGradient></defs><title>Artboard 1</title><path class="cls-1" d="M115 29.75l-4.7 12.95-4.8-12.95h-2.32l-4.75 13-4.8-13h-2.4l6.24 16.35h2l4.85-13.38 5.08 13.38h2l6.08-16.35zm13.82-.35c-2 0-4.7 1-5.67 3.3V20.55H121V46.1h2.23V37a5.14 5.14 0 0 1 5.47-5.43c2.62 0 4.6 1.92 4.6 5.07v9.46h2.25v-9.52c-.03-4.5-2.73-7.18-6.68-7.18zm25.7.35v3.15a7.34 7.34 0 0 0-6.52-3.5 8.25 8.25 0 0 0-8.3 8.5 8.29 8.29 0 0 0 8.3 8.55 7.36 7.36 0 0 0 6.53-3.52v3.17h2.22V29.75zm-6.35 14.58a6.29 6.29 0 0 1-6.17-6.45 6.22 6.22 0 0 1 6.22-6.32 6.39 6.39 0 0 1 0 12.78zm21.25-14.58h-3.75v-6.5h-2.2v6.5h-3v1.92h3V46.1h2.2V31.68h3.75zm13.45-4.45a1.63 1.63 0 0 0 1.75-1.57 1.75 1.75 0 1 0-1.75 1.57zm-1.07 20.8h2.2V29.75h-2.2zm12.45.35c3.4 0 6-1.85 6-4.75 0-1.9-1-3.83-4.17-4.6l-2.4-.6c-1.2-.28-2.52-.92-2.52-2.48s1.3-2.62 3.18-2.62a2.92 2.92 0 0 1 3.15 2.45h2.18c-.1-3-2.63-4.45-5.35-4.45-3.12 0-5.4 1.92-5.4 4.6s1.88 3.9 4.18 4.47l2.35.55c1.68.43 2.58 1.3 2.58 2.62 0 1.65-1.43 2.8-3.78 2.8s-3.63-1.4-3.87-2.75h-2.08c.27 3.11 3.12 4.76 5.95 4.76zm27.48-17c-2 0-4.68 1-5.68 3.3v-3h-2.22V46.1H216V37a5.14 5.14 0 0 1 5.47-5.43c2.62 0 4.63 1.92 4.63 5.07v9.46h2.22v-9.52c.05-4.5-2.65-7.18-6.6-7.18zM249 37.88c0-5.17-3.4-8.47-8.05-8.47a8.09 8.09 0 0 0-8.32 8.47 8.41 8.41 0 0 0 15.63 4.48l-1.93-.82a6.08 6.08 0 0 1-5.3 2.8 5.79 5.79 0 0 1-6.12-5.48h14a6.21 6.21 0 0 0 .09-.98zm-14.08-.95a5.69 5.69 0 0 1 6-5.38 5.58 5.58 0 0 1 5.85 5.38zm31.18 9.17l-6.48-9 5.3-7.33h-2.72l-3.9 5.5-3.92-5.5h-2.72L257 37.1l-6.5 9h2.65l5.15-7.1 5.13 7.15zm10.3-16.35h-3.75v-6.5h-2.2v6.5h-3v1.92h3V46.1h2.2V31.68h3.75z" id="_83c2764e-a48f-5cec-052e-e20508211432" data-name="83c2764e-a48f-5cec-052e-e20508211432"/><path class="cls-2" d="M80.24 20.87a2.09 2.09 0 0 0 1.39-1.94 2.08 2.08 0 1 0-4.16 0 2 2 0 0 0 1.39 1.94v7.35c-.14 0-.28-.14-.42-.14a18.09 18.09 0 0 0-35.24 0 4.13 4.13 0 0 0 0 8 19.08 19.08 0 0 0 3.75 7.49v3.75s2.77 5.55 13.87 5.55 13.87-5.55 13.87-5.55v-3.69a18.19 18.19 0 0 0 3.75-7.49 4.17 4.17 0 0 0 3.19-4 4 4 0 0 0-1.39-3.05zm-4 15.26a15 15 0 0 1-4 7.08c-2.91 3.05-6.94 0-11.38 0s-8.6 3.05-11.38 0a15.73 15.73 0 0 1-4-7.08 13.41 13.41 0 0 1-.55-4 13.41 13.41 0 0 1 .55-4c1.8-6.94 8-9.16 15.4-9.16s13.74 2.36 15.4 9.16a18.76 18.76 0 0 1 .55 4 13.41 13.41 0 0 1-.62 4.01zM60.81 22.26c-5.55 0-10.13 1.8-11.52 6.94a10.41 10.41 0 0 0 0 5.83l.14.28a21.49 21.49 0 0 1 13.46-4.72 28.27 28.27 0 0 0-11.65 8.32 12.13 12.13 0 0 0 1.11 1.39 3.25 3.25 0 0 0 2.36 1c1.8 0 3.88-1 6.1-1s4.3 1 6.1 1a3.25 3.25 0 0 0 2.36-1 11.7 11.7 0 0 0 2.92-5.3 10.41 10.41 0 0 0 0-5.83c-1.25-5.24-5.83-6.91-11.38-6.91z" id="_7b242c0b-1ff2-8318-3c17-e378f2552c2f" data-name="7b242c0b-1ff2-8318-3c17-e378f2552c2f"/></svg>