<?xml version="1.0" standalone="no"?>
<!DOCTYPE svg PUBLIC "-//W3C//DTD SVG 20010904//EN"
 "http://www.w3.org/TR/2001/REC-SVG-20010904/DTD/svg10.dtd">
<svg version="1.0" xmlns="http://www.w3.org/2000/svg"
 width="700.000000pt" height="700.000000pt" viewBox="0 0 700.000000 700.000000"
 preserveAspectRatio="xMidYMid meet">
<metadata>
Created by potrace 1.11, written by Peter Selinger 2001-2013
</metadata>
<g transform="translate(0.000000,700.000000) scale(0.100000,-0.100000)"
fill="#000000" stroke="none">
<path d="M3328 5824 c-2 -1 -30 -5 -62 -8 -60 -6 -78 -9 -176 -26 -172 -31
-384 -104 -564 -195 -359 -181 -660 -460 -874 -811 -107 -175 -164 -309 -260
-612 -5 -17 -22 -29 -59 -41 -186 -63 -322 -253 -324 -455 -1 -84 12 -149 47
-221 54 -116 162 -214 276 -251 50 -17 58 -23 63 -49 9 -41 72 -226 102 -300
70 -168 188 -373 298 -515 l42 -55 0 -227 0 -227 44 -58 c141 -187 383 -352
666 -452 137 -49 346 -100 478 -117 27 -3 61 -8 75 -9 197 -26 651 -25 802 0
13 2 43 6 68 9 25 3 56 8 70 11 14 3 40 7 59 10 90 12 384 96 405 116 6 5 16
9 23 9 17 0 204 92 268 133 121 76 250 191 325 291 l43 57 0 227 0 227 47 60
c172 218 304 487 385 783 11 36 23 62 31 62 22 0 121 47 161 77 239 176 274
525 73 734 -22 23 -30 42 -30 68 -1 20 -1 239 -1 486 l0 450 22 15 c156 104
185 274 69 391 -183 184 -486 4 -413 -244 16 -55 85 -132 127 -143 l26 -6 0
-444 0 -445 -22 12 c-13 6 -24 12 -25 13 -1 1 -18 56 -38 121 -246 811 -932
1408 -1759 1530 -23 4 -54 9 -71 11 -33 5 -413 13 -417 8z m437 -588 c61 -3
119 -8 130 -10 11 -2 45 -7 75 -10 338 -42 655 -157 885 -321 144 -102 298
-282 378 -440 55 -109 110 -275 132 -395 44 -237 56 -437 35 -606 -21 -172
-91 -422 -161 -572 -22 -46 -39 -86 -39 -88 0 -10 -99 -168 -150 -238 -74
-104 -217 -255 -277 -295 -25 -17 -70 -40 -100 -51 -153 -57 -292 -47 -683 50
-310 77 -512 92 -730 56 -51 -9 -109 -22 -215 -47 -197 -48 -327 -76 -384 -84
-153 -20 -282 -6 -379 41 -140 69 -372 351 -491 599 -68 141 -96 216 -135 358
-54 196 -66 303 -62 522 5 204 5 206 35 342 106 476 348 793 753 987 179 86
446 161 648 181 36 4 73 9 84 11 10 2 73 6 140 10 66 3 122 7 123 8 5 4 285
-2 388 -8z"/>
<path d="M3347 4844 c-1 -1 -36 -5 -77 -8 -152 -14 -193 -20 -305 -47 -397
-98 -663 -308 -795 -629 -29 -70 -64 -187 -74 -245 -3 -16 -10 -52 -15 -80
-14 -75 -7 -318 13 -410 17 -80 34 -135 43 -135 3 0 41 27 86 59 190 138 420
263 617 335 99 37 313 100 365 109 17 3 71 12 120 20 120 21 168 26 305 32
l115 5 -50 -21 c-116 -48 -363 -174 -487 -248 -330 -197 -578 -405 -826 -692
l-31 -35 41 -55 c133 -178 249 -240 426 -226 88 7 77 5 282 52 352 80 472 80
800 0 185 -45 220 -50 325 -50 96 0 122 6 193 42 117 59 298 303 391 526 36
89 88 291 97 386 26 254 -24 521 -139 746 -23 44 -44 82 -47 85 -3 3 -24 30
-48 61 -125 165 -338 294 -591 359 -103 26 -228 48 -322 56 -69 6 -407 13
-412 8z"/>
</g>
</svg>
